HIERARCHY
ROOT reference
{
  OFFSET 0 0 0
  CHANNELS 6 Xposition Yposition Zposition Zrotation Xrotation Yrotation
  JOINT Hips
  {
    OFFSET 14.7528 85.8984 80.9429
    CHANNELS 6 Xposition Yposition Zposition Zrotation Xrotation Yrotation
    JOINT Spine
    {
      OFFSET 0 7.85829 0
      CHANNELS 6 Xposition Yposition Zposition Zrotation Xrotation Yrotation
      JOINT Spine1
      {
        OFFSET 0 25.1384 0
        CHANNELS 6 Xposition Yposition Zposition Zrotation Xrotation Yrotation
        JOINT Neck
        {
          OFFSET 0 25.0351 2.27592
          CHANNELS 6 Xposition Yposition Zposition Zrotation Xrotation Yrotation
          JOINT Head
          {
            OFFSET 0 13.4166 -1.91665
            CHANNELS 6 Xposition Yposition Zposition Zrotation Xrotation Yrotation
            End Site
            {
              OFFSET 0 23.9582 0
            }
          }
        }
        JOINT LeftShoulder
        {
          OFFSET 3.81534 24.0346 -0.234509
          CHANNELS 6 Xposition Yposition Zposition Zrotation Xrotation Yrotation
          JOINT LeftArm
          {
            OFFSET 8.62273 0 0
            CHANNELS 6 Xposition Yposition Zposition Zrotation Xrotation Yrotation
            JOINT LeftForeArm
            {
              OFFSET 31.7064 0 0
              CHANNELS 6 Xposition Yposition Zposition Zrotation Xrotation Yrotation
              JOINT LeftHand
              {
                OFFSET 23.7731 0 0
                CHANNELS 6 Xposition Yposition Zposition Zrotation Xrotation Yrotation
                End Site
                {
                  OFFSET 14.3749 0 0
                }
              }
            }
          }
        }
        JOINT RightShoulder
        {
          OFFSET -3.83608 24.0346 -0.234509
          CHANNELS 6 Xposition Yposition Zposition Zrotation Xrotation Yrotation
          JOINT RightArm
          {
            OFFSET -8.62273 0 0
            CHANNELS 6 Xposition Yposition Zposition Zrotation Xrotation Yrotation
            JOINT RightForeArm
            {
              OFFSET -31.7064 0 0
              CHANNELS 6 Xposition Yposition Zposition Zrotation Xrotation Yrotation
              JOINT RightHand
              {
                OFFSET -23.7731 0 0
                CHANNELS 6 Xposition Yposition Zposition Zrotation Xrotation Yrotation
                End Site
                {
                  OFFSET -14.3749 0 0
                }
              }
            }
          }
        }
      }
    }
    JOINT LeftUpLeg
    {
      OFFSET 9.58328 0 0
      CHANNELS 6 Xposition Yposition Zposition Zrotation Xrotation Yrotation
      JOINT LeftLeg
      {
        OFFSET 0 -36.4535 0
        CHANNELS 6 Xposition Yposition Zposition Zrotation Xrotation Yrotation
        JOINT LeftFoot
        {
          OFFSET 0 -41.4659 0
          CHANNELS 6 Xposition Yposition Zposition Zrotation Xrotation Yrotation
          JOINT LeftToeBase
          {
            OFFSET 0 -6.22913 14.3749
            CHANNELS 6 Xposition Yposition Zposition Zrotation Xrotation Yrotation
            End Site
            {
              OFFSET 0 0 3.83331
            }
          }
        }
      }
    }
    JOINT RightUpLeg
    {
      OFFSET -9.58328 0 0
      CHANNELS 6 Xposition Yposition Zposition Zrotation Xrotation Yrotation
      JOINT RightLeg
      {
        OFFSET 0 -36.4535 0
        CHANNELS 6 Xposition Yposition Zposition Zrotation Xrotation Yrotation
        JOINT RightFoot
        {
          OFFSET 0 -41.4659 0
          CHANNELS 6 Xposition Yposition Zposition Zrotation Xrotation Yrotation
          JOINT RightToeBase
          {
            OFFSET 0 -6.22913 14.3749
            CHANNELS 6 Xposition Yposition Zposition Zrotation Xrotation Yrotation
            End Site
            {
              OFFSET 0 0 3.83331
            }
          }
        }
      }
    }
  }
}
MOTION
Frames:	6
Frame Time:	0.004
0 0 0 0 0 -0 0.871379 77.921 -153.14 3.84515 -2.07891 -1.71591 0 7.85829 0 -1.75668 -3.69151 1.1534 -4.44089e-016 25.1384 0 2.25549 10.2694 1.00737 0 25.0351 2.27592 -0.04304 29.2287 1.50039 0 13.4166 -1.91665 0.546962 -24.4121 1.74486 3.81534 24.0346 -0.234509 -17.3061 23.287 8.9743 8.62273 0 0 -36.713 38.9359 -23.8491 31.7064 0 -2.84217e-014 10.5054 -21.8918 -67.1063 23.7731 0 -1.42109e-014 -35.5375 -12.1295 -10.0427 -3.83608 24.0346 -0.234509 13.0744 27.5201 -0.604621 -8.62273 1.42109e-014 0 11.9388 50.2171 23.5564 -31.7064 2.84217e-014 0 -6.02263 -22.0726 78.4549 -23.7731 0 0 15.0897 -16.9007 4.24746 9.58328 0 2.84217e-014 8.04521 -25.9032 -0.142619 -3.55271e-015 -36.4535 0 -17.8895 35.4712 14.0603 3.55271e-015 -41.4659 -2.84217e-014 6.85644 -11.1033 6.02275 0 -6.22913 14.3749 -1.49089e-016 7.95139e-016 1.59028e-015 -9.58328 1.42109e-014 0 -9.7453 10.5812 3.20826 0 -36.4535 0 5.03275 6.70478 11.1748 0 -41.4659 2.84217e-014 -18.0479 -18.1122 -23.4178 0 -6.22913 14.3749 3.67752e-015 7.95139e-016 -1.59028e-015 
0 0 0 0 0 -0 0.882795 77.8836 -152.819 3.87543 -2.02511 -1.65062 -8.88178e-016 7.85829 0 -1.79517 -3.71944 1.13371 -2.22045e-016 25.1384 -2.84217e-014 2.17688 10.2237 0.9973 0 25.0351 2.27592 -0.0663831 29.2633 1.49187 0 13.4166 -1.91665 0.571001 -24.5969 1.7422 3.81534 24.0346 -0.234509 -17.3092 23.38 9.0009 8.62273 -2.84217e-014 0 -36.6802 38.8446 -23.9222 31.7064 0 0 10.5358 -21.8844 -66.9927 23.7731 -7.10543e-015 7.10543e-015 -35.6747 -12.0591 -10.1827 -3.83608 24.0346 -0.234509 13.1128 27.5736 -0.594565 -8.62273 1.42109e-014 0 11.89 50.1855 23.6577 -31.7064 0 1.42109e-014 -5.89124 -22.0408 78.3462 -23.7731 -1.42109e-014 -3.55271e-015 14.884 -16.9901 4.22468 9.58328 0 0 7.99605 -25.8628 -0.140703 -3.55271e-015 -36.4535 0 -17.3124 34.0336 13.8639 0 -41.4659 0 6.36941 -10.6684 5.9016 0 -6.22913 14.3749 -9.93923e-017 1.19271e-015 1.59028e-015 -9.58328 1.42109e-014 2.84217e-014 -9.7564 10.7102 3.17329 -3.55271e-015 -36.4535 0 5.03098 6.85904 11.3255 0 -41.4659 -2.84217e-014 -18.1947 -18.2148 -23.7007 0 -6.22913 14.3749 -3.37934e-015 -2.38542e-015 -0 
0 0 0 0 0 -0 0.902262 77.8437 -152.475 3.89184 -1.99714 -1.58833 0 7.85829 0 -1.83187 -3.78532 1.11689 -2.22045e-016 25.1384 2.84217e-014 2.14748 10.2731 0.984442 -1.77636e-015 25.0351 2.27592 -0.083346 29.2402 1.45493 1.77636e-015 13.4166 -1.91665 0.514739 -24.7111 1.6825 3.81534 24.0346 -0.234509 -17.3122 23.3065 8.92742 8.62273 0 -2.84217e-014 -36.7349 38.8785 -23.8366 31.7064 -1.42109e-014 0 10.5783 -21.9248 -66.8699 23.7731 0 0 -35.7455 -12.0954 -10.1436 -3.83608 24.0346 -0.234509 13.0783 27.5762 -0.520754 -8.62273 -1.42109e-014 0 11.9645 50.1737 23.652 -31.7064 0 0 -5.85207 -22.0896 78.1769 -23.7731 1.42109e-014 0 15.0736 -17.047 4.4702 9.58328 1.42109e-014 0 7.95213 -25.7377 -0.149687 -3.55271e-015 -36.4535 0 -16.7487 32.4997 13.6452 7.10543e-015 -41.4659 2.84217e-014 6.12604 -10.2587 5.85913 7.10543e-015 -6.22913 14.3749 -5.96354e-016 7.95139e-016 -0 -9.58328 1.42109e-014 0 -9.7433 10.9042 3.08346 0 -36.4535 0 4.99805 6.93671 11.1261 3.55271e-015 -41.4659 0 -17.9175 -18.482 -23.5438 0 -6.22913 14.3749 -5.56597e-015 0 3.18055e-015 
0 0 0 0 0 -0 0.922227 77.799 -152.13 3.91457 -1.97678 -1.5059 -4.44089e-016 7.85829 0 -1.86162 -3.84112 1.0991 0 25.1384 0 2.08551 10.3179 0.973278 0 25.0351 2.27592 -0.119711 29.1845 1.41947 -1.77636e-015 13.4166 -1.91665 0.531837 -24.7551 1.64727 3.81534 24.0346 -0.234509 -17.2974 23.296 8.91312 8.62273 1.42109e-014 0 -36.6923 39.0467 -23.9026 31.7064 1.42109e-014 0 10.7797 -22.1384 -66.6374 23.7731 0 -7.10543e-015 -36.01 -12.1398 -10.3142 -3.83608 24.0346 -0.234509 13.0887 27.6202 -0.541007 -8.62273 1.42109e-014 0 11.8949 50.0348 23.8071 -31.7064 0 0 -5.71923 -21.931 78.0564 -23.7731 -1.42109e-014 -3.55271e-015 15.0245 -16.9953 4.49503 9.58328 0 2.84217e-014 7.93062 -25.6018 -0.18675 -3.55271e-015 -36.4535 0 -16.3227 30.9782 13.3776 0 -41.4659 2.84217e-014 5.77296 -9.89407 5.95817 0 -6.22913 14.3749 -9.93923e-017 0 -0 -9.58328 -1.42109e-014 2.84217e-014 -9.74931 11.1161 2.93853 0 -36.4535 2.84217e-014 4.99241 7.03132 11.1321 0 -41.4659 0 -17.8857 -18.6729 -23.5919 0 -6.22913 14.3749 1.49089e-015 -7.95139e-016 -0 
0 0 0 0 0 -0 0.941001 77.761 -151.764 3.9215 -1.96367 -1.49488 0 7.85829 0 -1.86149 -3.91112 1.10431 0 25.1384 0 1.99117 10.3527 0.987528 1.77636e-015 25.0351 2.27592 -0.165098 29.2088 1.43704 1.77636e-015 13.4166 -1.91665 0.580357 -24.9178 1.67758 3.81534 24.0346 -0.234509 -17.2809 23.3935 8.96295 8.62273 1.42109e-014 0 -36.6427 38.9617 -24.0386 31.7064 0 0 10.7663 -22.0843 -66.4846 23.7731 1.42109e-014 7.10543e-015 -35.7467 -12.1134 -10.3895 -3.83608 24.0346 -0.234509 13.0983 27.6674 -0.533973 -8.62273 -1.42109e-014 0 11.8801 49.9986 23.9092 -31.7064 0 1.42109e-014 -5.61546 -21.8847 77.9444 -23.7731 1.42109e-014 1.06581e-014 14.9501 -17.0371 4.5166 9.58328 0 0 7.89756 -25.3843 -0.129981 3.55271e-015 -36.4535 -2.84217e-014 -15.7825 29.4611 13.1803 0 -41.4659 0 5.88722 -9.66233 5.92552 -7.10543e-015 -6.22913 14.3749 1.39149e-015 -7.95139e-016 -0 -9.58328 0 2.84217e-014 -9.7695 11.352 3.0149 0 -36.4535 -2.84217e-014 5.03173 7.07954 11.145 -3.55271e-015 -41.4659 0 -17.906 -18.766 -23.7738 0 -6.22913 14.3749 -9.93923e-016 3.18055e-015 4.77083e-015 
0 0 0 0 0 -0 0.959774 77.7154 -151.428 3.93121 -1.91194 -1.42591 8.88178e-016 7.85829 -2.84217e-014 -1.92077 -3.95302 1.08614 0 25.1384 0 1.99451 10.3306 0.972188 0 25.0351 2.27592 -0.230504 29.2111 1.39961 0 13.4166 -1.91665 0.606618 -25.0236 1.64012 3.81534 24.0346 -0.234509 -17.3191 23.2946 8.93576 8.62273 0 2.84217e-014 -36.6877 39.1442 -23.953 31.7064 0 0 10.9573 -22.254 -66.2534 23.7731 7.10543e-015 0 -35.8419 -12.1552 -10.4996 -3.83608 24.0346 -0.234509 13.1043 27.7186 -0.527746 -8.62273 -1.42109e-014 0 11.855 49.9396 23.9761 -31.7064 0 -1.42109e-014 -5.57429 -21.8831 77.8181 -23.7731 0 3.55271e-015 15.0647 -17.0579 4.63424 9.58328 0 0 7.82214 -25.2729 -0.162203 0 -36.4535 0 -15.2283 27.8867 13.0937 3.55271e-015 -41.4659 -2.84217e-014 5.58554 -9.23513 5.84494 0 -6.22913 14.3749 1.39149e-015 -7.95139e-016 -0 -9.58328 0 0 -9.76459 11.5172 3.04293 0 -36.4535 2.84217e-014 5.06543 7.17918 11.0918 0 -41.4659 0 -17.9279 -18.9117 -23.9595 0 -6.22913 14.3749 1.78906e-015 -7.95139e-016 -1.59028e-015 
